<svg viewBox="0 0 32 32" xmlns="http://www.w3.org/2000/svg"><path fill="#25D366" d="M19.11 16.18c-.26-.13-1.53-.76-1.76-.85-.24-.09-.41-.13-.58.13-.17.26-.67.85-.82 1.02-.15.17-.3.2-.56.07-.26-.13-1.1-.41-2.1-1.3-.78-.69-1.3-1.54-1.46-1.8-.15-.26-.02-.4.11-.53.12-.12.26-.3.39-.45.13-.15.17-.26.26-.43.09-.17.04-.32-.02-.45-.06-.13-.58-1.39-.8-1.9-.21-.51-.43-.44-.58-.45h-.5c-.17 0-.45.06-.69.32-.24.26-.91.89-.91 2.17 0 1.28.93 2.52 1.06 2.69.13.17 1.83 2.79 4.43 3.91.62.27 1.11.43 1.49.55.62.2 1.18.17 1.63.1.5-.07 1.53-.62 1.75-1.22.22-.6.22-1.11.15-1.22-.06-.1-.24-.17-.5-.3z"/><path fill="#25D366" d="M26.75 5.25A12.5 12.5 0 0 0 4.7 22.78L3 29l6.35-1.67A12.49 12.49 0 1 0 26.75 5.25zM16 26.5c-2.04 0-3.93-.61-5.52-1.65l-.4-.26-3.77.99 1.01-3.67-.27-.38A10.5 10.5 0 1 1 26.5 16 10.51 10.51 0 0 1 16 26.5z"/></svg>
